PathFileType	4	(X/Y/Z)	C:\Users\Basilio\Documents\Thesis Gigler\squatting_fais\c3dfiles\040\SLS_pre_front2\markers_experimental.trc
DataRate	CameraRate	NumFrames	NumMarkers	Units	OrigDataRate	OrigDataStartFrame	OrigNumFrames
200.000000	200.000000	4	62	mm	200.000000	1287	1471
Frame#	Time	FHD			LBHD			RBHD			C7			T10			CLAV			LSHO			LUUPA			LMUPA			LDUPA			LLEP			LMEP			LRAD			LUL			LRFIN			RSHO			RUPA1			RMUPA			RDUPA			RLEP			RMEP			RRAD			RUL			RUFIN			LASI			RASI			USACR			LSACR			RSACR			LTHI1			LTHI2			LTHI3			LTHI4			LLFC			LMFC			LTIB1			LTIB2			LTIB3			LTIB4			LLMAL			LMMAL			LHEE			LMT1			LMT2			LMT5			RTHI			RTHI2			RTHI3			RTHI4			RLFC			RMFC			RTIB1			RTIB2			RTIB3			RTIB4			RLMAL			RMMAL			RHEE			RMT1			RMT2			RMT5			*61			
		X1	Y1	Z1	X2	Y2	Z2	X3	Y3	Z3	X4	Y4	Z4	X5	Y5	Z5	X6	Y6	Z6	X7	Y7	Z7	X8	Y8	Z8	X9	Y9	Z9	X10	Y10	Z10	X11	Y11	Z11	X12	Y12	Z12	X13	Y13	Z13	X14	Y14	Z14	X15	Y15	Z15	X16	Y16	Z16	X17	Y17	Z17	X18	Y18	Z18	X19	Y19	Z19	X20	Y20	Z20	X21	Y21	Z21	X22	Y22	Z22	X23	Y23	Z23	X24	Y24	Z24	X25	Y25	Z25	X26	Y26	Z26	X27	Y27	Z27	X28	Y28	Z28	X29	Y29	Z29	X30	Y30	Z30	X31	Y31	Z31	X32	Y32	Z32	X33	Y33	Z33	X34	Y34	Z34	X35	Y35	Z35	X36	Y36	Z36	X37	Y37	Z37	X38	Y38	Z38	X39	Y39	Z39	X40	Y40	Z40	X41	Y41	Z41	X42	Y42	Z42	X43	Y43	Z43	X44	Y44	Z44	X45	Y45	Z45	X46	Y46	Z46	X47	Y47	Z47	X48	Y48	Z48	X49	Y49	Z49	X50	Y50	Z50	X51	Y51	Z51	X52	Y52	Z52	X53	Y53	Z53	X54	Y54	Z54	X55	Y55	Z55	X56	Y56	Z56	X57	Y57	Z57	X58	Y58	Z58	X59	Y59	Z59	X60	Y60	Z60	X61	Y61	Z61	X62	Y62	Z62	

1288	6.435	-186.6463317871094	1774.606567382813	-1141.244995117188	-293.7664794921876	1726.739624023438	-1066.743530273438	-221.0066070556641	1685.869873046875	-946.8369140625002	-315.3525695800782	1572.63623046875	-1012.231384277344	-353.8662719726563	1250.945434570313	-1018.764282226563	-192.8751220703126	1498.002075195313	-1031.735473632813	-266.4224853515626	1533.175170898438	-1200.482055664063	-324.4441223144532	1326.63037109375	-1283.869262695313	-285.3049621582032	1297.987670898438	-1277.244262695313	-330.3097839355469	1258.6171875	-1292.369140625	-346.5408630371094	1198.22216796875	-1289.879272460938	-361.1026306152344	1188.39990234375	-1224.127075195313	-228.2588195800782	937.545593261719	-1288.52783203125	-284.4373474121094	937.1181640625002	-1340.718994140625	-207.5536041259766	853.818054199219	-1323.707885742188	-224.9991149902344	1506.771484375	-850.784851074219	-278.4632263183594	1302.271240234375	-757.2990112304689	-239.2733459472657	1276.043823242188	-766.0548706054689	-278.4215393066407	1233.564575195313	-749.9730834960939	-272.5926208496094	1171.571411132813	-744.1511230468751	-301.3415527343751	1156.772583007813	-815.6372680664065	-117.1227951049805	927.4661865234377	-766.3460083007814	-174.7099304199219	910.527770996094	-722.3239746093751	-74.93038177490236	856.1775512695315	-729.7239990234376	-173.49462890625	1073.905517578125	-1131.101806640625	-172.7153930664063	1074.369750976563	-899.332702636719	-358.1176452636719	1121.882568359375	-1013.325927734375	-364.3056640625001	1092.484741210938	-1041.366088867188	-365.5314636230469	1091.651123046875	-985.420349121094	-313.1268615722657	825.0791625976565	-1190.563354492188	-279.6862182617188	746.5490112304689	-1192.207641601563	-233.3500671386719	747.6539916992189	-1192.037231445313	-307.2803344726563	695.8344116210939	-1178.8466796875	-303.0159912109376	560.2014160156251	-1163.598876953125	-305.6136474609376	545.4197998046876	-1031.32763671875	-274.5926818847657	339.0107116699219	-1118.119750976563	-346.3761596679688	299.7641296386719	-1152.74462890625	-303.5289916992188	292.3107604980469	-1140.616943359375	-292.3606872558594	215.4349060058594	-1102.158081054688	-357.8700866699219	127.3729858398438	-1104.680297851563	-320.3018798828126	143.0432891845703	-1028.083251953125	-414.2972412109376	96.74687194824222	-1049.100219726563	-199.4185028076172	60.67818450927736	-1050.545288085938	-204.9669036865235	52.7981643676758	-1096.553588867188	-261.7906799316407	37.67441558837891	-1137.666015625	-250.9988098144532	807.1721801757815	-832.2193603515627	-221.4248657226563	747.1743774414064	-835.2998046875002	-189.0368041992188	746.3708496093751	-843.0362548828127	-258.8649291992188	673.5584716796876	-849.8297119140627	-264.8004150390626	538.0836181640626	-863.136169433594	-261.9859008789063	532.6756591796876	-996.623229980469	-218.1773071289063	352.6622619628907	-891.2165527343752	-288.5380249023438	276.3841552734376	-868.9446411132815	-243.359603881836	271.5793151855469	-877.7519531250002	-228.0335693359376	226.0981597900391	-913.2759399414065	-282.0826416015626	114.7424621582032	-896.6359863281252	-262.3885803222657	128.5095977783203	-981.7076416015627	-341.9393005371094	75.74539184570314	-950.8406982421877	-122.8140945434571	56.47890472412111	-961.8510742187502	-126.9413223266602	57.748592376709	-922.440368652344	-168.383041381836	35.64257431030274	-868.881774902344	nan	nan	nan	
1289	6.44	-187.5140380859375	1774.619506835938	-1142.371826171875	-293.7053833007813	1726.765380859375	-1066.161499023438	-219.5971221923829	1685.771118164063	-947.239929199219	-315.1031188964844	1572.663696289063	-1011.93310546875	-353.7955322265626	1251.004272460938	-1018.500366210938	-192.8560791015626	1497.924072265625	-1031.841918945313	-266.9709777832032	1533.1591796875	-1200.327758789063	-325.3403625488282	1326.682006835938	-1283.54638671875	-286.1124267578126	1298.011352539063	-1277.156127929688	-331.3934020996094	1258.728271484375	-1292.277709960938	-347.5120239257813	1198.326171875	-1289.66357421875	-361.7388000488282	1188.270141601563	-1223.791625976563	-229.5360717773438	937.592956542969	-1289.466552734375	-285.8854064941407	937.2039794921877	-1341.06103515625	-209.0093536376954	853.4639892578127	-1325.21484375	-224.6647186279297	1506.885620117188	-850.7627563476565	-278.8614196777344	1302.246215820313	-757.2293090820314	-239.5005950927735	1276.119506835938	-765.8748779296876	-279.4240417480469	1233.90185546875	-749.7256469726564	-273.4208374023438	1171.455444335938	-743.7478637695314	-301.9316101074219	1157.044311523438	-815.5550537109377	-118.5139236450196	927.7404785156252	-764.7650146484376	-177.0654296875	910.3122558593752	-721.1951904296876	-77.12931060791017	855.9300537109377	-727.3621826171876	-173.6034393310547	1073.932495117188	-1131.110961914063	-172.6326446533203	1074.3359375	-899.3311767578127	-358.0900878906251	1121.914794921875	-1013.159362792969	-364.3265686035157	1092.491333007813	-1041.22265625	-365.3812255859376	1091.619262695313	-985.310485839844	-313.2101745605469	825.1076660156252	-1190.514038085938	-279.6110534667969	746.5451049804689	-1192.194091796875	-233.3228759765626	747.7122802734376	-1192.005126953125	-307.3074951171876	695.8615722656251	-1178.826904296875	-302.8630676269532	560.5509643554689	-1163.546508789063	-305.4372558593751	545.3839111328126	-1031.328247070313	-274.4811401367188	339.0229187011719	-1118.104125976563	-346.3297729492188	299.8056030273438	-1152.715698242188	-303.5309753417969	292.2903137207032	-1140.5888671875	-292.3494262695313	215.4303131103516	-1102.076538085938	-357.7540588378907	127.3747940063477	-1104.539916992188	-320.3390808105469	143.0048065185547	-1028.1318359375	-414.2779541015626	96.7955017089844	-1049.069458007813	-199.4191894531251	60.6786575317383	-1050.545166015625	-204.9367980957032	52.81334304809572	-1096.509521484375	-261.7263793945313	37.69934082031251	-1137.680419921875	-250.8740997314454	807.1754150390627	-832.1610107421877	-221.3592529296876	747.1645507812501	-835.285339355469	-188.8526000976563	746.2368164062501	-843.236755371094	-258.7911682128907	673.6198730468751	-849.8159790039065	-264.5855712890626	538.0543823242189	-863.1755371093752	-261.9563293457032	532.7485351562501	-996.6299438476565	-218.0656280517579	352.5755004882813	-891.1523437500002	-288.5182495117188	276.3362731933594	-868.9227294921877	-243.3311614990235	271.6742858886719	-877.7510986328127	-227.9939575195313	226.136947631836	-913.2449340820315	-281.8551635742188	114.4339599609375	-896.598327636719	-262.3377685546876	128.4143218994141	-981.7663574218752	-341.9972229003907	75.70916748046876	-950.8551025390627	-122.8201675415039	56.47924041748048	-961.8591918945315	-126.9696960449219	57.74897766113283	-922.4006347656252	-168.35888671875	35.69473266601563	-868.8067626953127	nan	nan	nan	
1290	6.445	-188.4936065673828	1774.512939453125	-1143.096435546875	-293.4555969238282	1726.751831054688	-1065.561401367188	-217.8638000488282	1685.802612304688	-947.4854736328127	-314.8823852539063	1572.803955078125	-1011.662780761719	-353.7482604980469	1251.021484375	-1018.296630859375	-192.9458160400391	1498.12353515625	-1031.92041015625	-267.3948974609376	1533.10009765625	-1200.182983398438	-326.2582397460938	1326.777221679688	-1283.220336914063	-286.8139953613282	1297.901733398438	-1277.059936523438	-332.4529113769532	1258.803588867188	-1292.0087890625	-348.4916381835938	1198.361328125	-1289.400146484375	-362.3894653320313	1188.343872070313	-1223.411987304688	-230.8968353271485	937.4521484375002	-1290.250732421875	-287.5830993652344	937.3457031250002	-1341.79541015625	-210.5706481933594	853.9549560546877	-1326.585693359375	-224.2116699218751	1506.996459960938	-850.810241699219	-279.3010253906251	1302.625732421875	-757.1262817382814	-240.1223754882813	1276.372314453125	-765.5386352539064	-280.0621643066407	1234.047119140625	-749.4904785156251	-274.4018249511719	1172.186401367188	-743.6956787109376	-302.4506835937501	1157.388305664063	-815.5334472656252	-120.1696929931641	927.2952880859377	-762.7590332031251	-178.8871154785157	910.2593994140627	-720.1042480468751	-79.12145233154298	855.6506958007815	-725.1495361328126	-173.6386108398438	1073.971069335938	-1131.149291992188	-172.6083526611328	1074.307373046875	-899.337829589844	-358.2492065429688	1121.495849609375	-1013.146484375	-364.2050476074219	1092.456298828125	-1041.07470703125	-365.3485717773438	1091.616333007813	-985.1979980468752	-313.2044677734376	825.0440673828127	-1190.500732421875	-279.6250305175782	746.5771484375001	-1192.166381835938	-233.2804565429688	747.7592773437501	-1192.052734375	-307.1673278808594	695.8492431640626	-1178.762573242188	-302.8476867675782	560.2196655273439	-1163.5361328125	-305.3099670410157	545.4325561523439	-1031.265991210938	-274.4217529296876	339.0265502929688	-1118.047973632813	-346.2816467285157	299.8011474609376	-1152.711669921875	-304.2008056640626	292.3481750488282	-1140.9384765625	-292.4479675292969	215.5884399414063	-1102.107543945313	-357.6780700683594	127.3585357666016	-1104.562866210938	-320.3086242675782	143.0453796386719	-1028.03173828125	-414.2794189453126	96.74800109863284	-1049.083984375	-199.3365020751954	60.67261123657228	-1050.604248046875	-204.9128112792969	52.81735610961915	-1096.545776367188	-261.7816772460938	37.68161392211915	-1137.655517578125	-250.4482879638672	807.4884033203127	-832.0230712890627	-221.3137817382813	747.1906127929689	-835.283386230469	-188.5023956298828	746.2442016601564	-843.2641601562502	-258.6196594238282	673.6351318359376	-849.8125610351565	-264.3562316894532	538.0781250000001	-863.195495605469	-261.6948547363282	532.6730346679689	-996.6438598632815	-218.0048980712891	352.6239929199219	-891.189636230469	-288.4693603515626	276.3233032226563	-868.9439697265627	-243.3311157226563	271.5178833007813	-877.7581176757815	-227.9860382080079	226.0827941894532	-913.2435302734377	-281.9940185546876	114.5981063842774	-896.6011962890627	-262.3700256347657	128.4412536621094	-981.745300292969	-342.0010375976563	75.72566986083986	-950.8562622070315	-122.1974411010742	56.04062271118165	-961.7030029296877	-126.5671691894532	57.22393035888673	-922.4943847656252	-168.3677825927735	35.65374374389649	-868.8551025390627	nan	nan	nan	
1291	6.45	-189.2177124023438	1774.379760742188	-1143.875366210938	-293.3279418945313	1726.910766601563	-1065.009521484375	-216.9565124511719	1685.295166015625	-947.937683105469	-314.5058898925782	1573.062622070313	-1011.379333496094	-353.6462097167969	1251.055908203125	-1018.089233398438	-192.9467315673829	1497.958862304688	-1032.069580078125	-268.1020812988282	1533.089599609375	-1199.844482421875	-327.2211914062501	1326.91748046875	-1282.93994140625	-287.6849975585938	1297.864624023438	-1276.985473632813	-333.2686767578126	1258.788818359375	-1291.698364257813	-349.4885864257813	1198.456787109375	-1289.149536132813	-363.0106201171876	1188.29833984375	-1223.000732421875	-231.9631500244141	937.5130004882815	-1290.99609375	-289.0559997558594	937.5198364257815	-1342.2431640625	-211.3748626708985	854.2048950195315	-1328.380859375	-223.8587646484376	1507.091186523438	-850.8543701171877	-279.6870422363282	1302.8349609375	-756.9522094726564	-240.5243072509766	1276.495483398438	-765.3115844726564	-280.5036621093751	1234.346801757813	-749.3755493164064	-275.7388916015626	1172.457397460938	-743.4567871093751	-303.0794982910157	1157.700073242188	-815.5310058593752	-121.4622421264649	926.972839355469	-761.3198852539064	-180.7988433837891	910.2028808593752	-718.8895263671876	-81.21817016601564	855.4818115234377	-723.0745239257814	-173.731918334961	1074.03759765625	-1131.219116210938	-172.5282440185547	1074.30224609375	-899.3349609375002	-358.2233276367188	1121.445678710938	-1012.992370605469	-364.1310729980469	1092.464599609375	-1040.895629882813	-365.3825683593751	1091.554809570313	-985.0775146484377	-313.2539672851563	825.069274902344	-1190.425170898438	-279.6032714843751	746.5419921875001	-1192.147827148438	-233.3077545166016	747.8014526367189	-1192.041625976563	-307.1608581542969	695.8456420898439	-1178.705810546875	-302.7702026367188	560.1972656250001	-1163.483032226563	-305.1819152832032	545.4201049804689	-1031.251708984375	-274.5519714355469	339.8247985839844	-1118.236694335938	-346.2441101074219	299.8194885253907	-1152.699462890625	-303.3888854980469	292.3321838378907	-1140.5205078125	-292.4865112304688	215.6521148681641	-1102.187744140625	-357.8270874023438	127.3654098510742	-1104.675170898438	-320.2777099609376	143.0640411376953	-1028.088256835938	-414.2666320800782	96.792350769043	-1049.08056640625	-199.4092102050782	60.70568084716798	-1050.5673828125	-204.9386596679688	52.78718566894533	-1096.541870117188	-261.7925720214844	37.71041870117188	-1137.653564453125	-250.3508605957032	807.528015136719	-831.974548339844	-221.1628570556641	747.2034912109376	-835.3269042968752	-188.3839263916016	746.5985717773439	-843.734069824219	-258.4846496582032	674.0544433593751	-849.9858398437502	-264.2808227539063	538.0699462890626	-863.1851196289065	-261.7069396972657	532.6884155273439	-996.5895996093752	-217.8864440917969	352.5945739746094	-891.1802978515627	-288.4169006347657	276.3400878906251	-868.9016113281252	-243.2488708496094	271.5236816406251	-877.7266235351565	-227.9867553710938	226.0595397949219	-913.232849121094	-281.9040527343751	114.5303421020508	-896.5791625976565	-262.3625793457032	128.4858856201172	-981.747009277344	-341.9675292968751	75.76482391357423	-950.866882324219	-122.7955322265625	56.49861907958986	-961.841247558594	-126.9745864868164	57.76506805419923	-922.3711547851565	-168.3460540771485	35.67802429199219	-868.7740478515627	nan	nan	nan	
